<svg width="17" height="17" viewBox="0 0 17 17" fill="none" xmlns="http://www.w3.org/2000/svg">
<path d="M2.51492 0.414L8.43358 6.33267L14.3216 0.444667C14.4516 0.306233 14.6083 0.195492 14.7822 0.119082C14.9561 0.0426724 15.1437 0.00216866 15.3336 0C15.7402 0 16.1303 0.161547 16.4178 0.449103C16.7054 0.736659 16.8669 1.12667 16.8669 1.53333C16.8705 1.72132 16.8356 1.90806 16.7644 2.08208C16.6932 2.25611 16.5872 2.41375 16.4529 2.54533L10.4882 8.43333L16.4529 14.398C16.7056 14.6452 16.8538 14.98 16.8669 15.3333C16.8669 15.74 16.7054 16.13 16.4178 16.4176C16.1303 16.7051 15.7402 16.8667 15.3336 16.8667C15.1382 16.8748 14.9432 16.8422 14.7611 16.7709C14.5789 16.6996 14.4136 16.5912 14.2756 16.4527L8.43358 10.534L2.53025 16.4373C2.40069 16.5711 2.24592 16.678 2.07485 16.7517C1.90379 16.8254 1.71983 16.8644 1.53358 16.8667C1.12692 16.8667 0.736908 16.7051 0.449352 16.4176C0.161797 16.13 0.000249484 15.74 0.000249484 15.3333C-0.00332548 15.1453 0.0315531 14.9586 0.102745 14.7846C0.173937 14.6106 0.27994 14.4529 0.414249 14.3213L6.37892 8.43333L0.414249 2.46867C0.161533 2.22143 0.0133436 1.88663 0.000249484 1.53333C0.000249484 1.12667 0.161797 0.736659 0.449352 0.449103C0.736908 0.161547 1.12692 0 1.53358 0C1.90158 0.0046 2.25425 0.153333 2.51492 0.414Z" fill="white"/>
</svg>
